/* XPM */
static char *a1b22c655eb248aff7043b11e6c6595e10kQqbpjJffEAQqh[] = {
/* columns rows colors chars-per-pixel */
"64 64 2 1 ",
"  c #B4B4B4",
". c #E6D3D6",
/* pixels */
"................................................................",
"................................................................",
"................................................................",
"................................................................",
"................................................................",
"................................................................",
"......                                .......                   ",
"......                                .......                   ",
"................................................................",
"................................................................",
"................................................................",
"................................................................",
"..                          ......                         .....",
"..                          ......                         .....",
"................................................................",
"................................................................",
"................................................................",
"................................................................",
"..           ......                          ......             ",
"..           ......                          ......             ",
"................................................................",
"................................................................",
"................................................................",
"................................................................",
"..                       .......                           .....",
"..                       .......                           .....",
"................................................................",
"................................................................",
"................................................................",
"................................................................",
"..      .......                         .....                   ",
"..      .......                         .....                   ",
"................................................................",
"................................................................",
"................................................................",
"................................................................",
"................................................................",
"..                 ......                        ...............",
"..                 ......                        ...............",
".....................................................           ",
".....................................................           ",
"................................................................",
"................................................................",
"..  .......                       ....                     .....",
"..  .......                       ....                     .....",
"................................................................",
"................................................................",
"................................................................",
"................................................................",
"..                     .....                   ....             ",
"..                     .....                   ....             ",
"................................................................",
"................................................................",
"................................................................",
"................................................................",
"....                        ....                   ......       ",
"....                        ....                   ......       ",
"................................................................",
"................................................................",
"................................................................",
"................................................................",
"..      .....                         .......                   ",
"..      .....                         .......                   ",
"................................................................"
};
