/* XPM */
static char *_f2de2f06040437183d362210aeda021RxJuPtMVzcYNmXyo[] = {
/* columns rows colors chars-per-pixel */
"64 64 6 1 ",
"  c black",
". c #FF9800",
"X c #B4B4B4",
"o c #FFCDD2",
"O c #E6D3D6",
"+ c white",
/* pixels */
"OOOOOOOOOOOOOOOOOOOOOOOOOOOOOOOOOOOOOOOOOOOOOOOOOOOOOOOOOOOOOOOO",
"OOOOOOOOOOOOOOOOOOOOOOOOOOOOOOOOOOOOOOOOOOOOOOOOOOOOOOOOOOOOOOOO",
"OOOOOOOOOOOOOOOOOOOOOOOOOOOOOOOOOOOOOOOOOOOOOOOOOOOOOOOOOOOOOOOO",
"OOOOOO           OOOOOOOOOOOOOOOOOOOOOOOOOOOOOOO          OOOOOO",
"OOOOOO           OOOOOOOOOOOOOOOOOOOOOOOOOOOOOOO          OOOOOO",
"OOOOOO           OOOOOOOOOOOOOOOOOOOOOOOOOOOOOOO          OOOOOO",
"OOOO  ...........  XXXXXXXXXXXXXXXXXXXOOOOOOO   ..........   XXX",
"OOOO  ...........  XXXXXXXXXXXXXXXXXXXOOOOOOO   ..........   XXX",
"O   oo     ........   OOOOOOOOOOOOOOOOOOOOO  ........     ooo  O",
"O   oo     ........   OOOOOOOOOOOOOOOOOOOOO  ........     ooo  O",
"O   ooooooo   .....                          .....   oooooooo  O",
"O   ooooooo   .....                          .....   oooooooo  O",
"O   ooooooo   ....................................   oooooooo  O",
"O   ooooooo   ....................................   oooooooo  O",
"O   ooooo  ................................++++++++++   ooooo  O",
"O   ooooo  ................................++++++++++   ooooo  O",
"O   ooooo  ................................++++++++++   ooooo  O",
"OOOO     ..........................+++++++++++++++++++++     OOO",
"OOXX     ..........................+++++++++++++++++++++     XXX",
"OOXXXX   .....        ........+++++++++++++       ++++++  XXXXXX",
"OOOOOO   .....        ........+++++++++++++       ++++++  OOOOOO",
"OOOOOO   ..      +++++  ++++++++++++++++     +++++   +++  OOOOOO",
"OOOOOO   ..      +++++  ++++++++++++++++     +++++   +++  OOOOOO",
"OOOO  .....      +++++  ++++++++++++++++     +++++   +++++   OOO",
"OOXX  .....      +++++  ++++++++++++++++     +++++   +++++   OOO",
"OOXX  +++++   +++       ++++++++++++++++   ++        +++++   OOO",
"OOOO  +++++   +++       ++++++++++++++++   ++        +++++   OOO",
"OOOO  +++++   +++       ++++++++++++++++   ++        +++++   OOO",
"OOOO     +++++        +++++++++++++++++++++       ++++++     OOO",
"OOOO     +++++        +++++++++++++++++++++       ++++++     OOO",
"OOXX  ++++++++++++++++++++++++  ++++++++++++++++++++++++++   XXX",
"OOXX  ++++++++++++++++++++++++  ++++++++++++++++++++++++++   XXX",
"OOOO     +++++++++++++++++++++++++++++++++++++++++++++++     OOO",
"OOOO     +++++++++++++++++++++++++++++++++++++++++++++++     OOO",
"OOOO  ++++++++++++++++  ++++++  +++++   ++++++++++++++++++   OOO",
"OOOO  ++++++++++++++++  ++++++  +++++   ++++++++++++++++++   OOO",
"OOOO  ++++++++++++++++  ++++++  +++++   ++++++++++++++++++   OOO",
"OOXXXX   +++++++++++++++      ++     +++++++++++++++++++  OOOOOO",
"OOXXXX   +++++++++++++++      ++     +++++++++++++++++++  OOOOOO",
"OOOOOO     ......+++++++++++++++++++++++++++++++.....     XXXXXX",
"OOOOOO     ......+++++++++++++++++++++++++++++++.....     XXXXXX",
"OOOOOO   .....+++++   +++++++++++++++++++++  +++++......  OOOOOO",
"OOOOOO   .....+++++   +++++++++++++++++++++  +++++......  OOOOOO",
"OOXXOO   .....+++ooooo  ++++++++++++++++   ooooo++......  XOOOOO",
"OOXXOO   .....+++ooooo  ++++++++++++++++   ooooo++......  XOOOOO",
"OOOOOO   ..+++   ooooo  ++++++++++++++++   ooooo  +++...  OOOOOO",
"OOOOOO   ..+++   ooooo  ++++++++++++++++   ooooo  +++...  OOOOOO",
"OOOOOO   ..+++   ooooo  ++++++++++++++++   ooooo  +++...  OOOOOO",
"OOOOOO   ++++++++     +++++++++++++++++++++     ++++++++  OOOOOO",
"OOXXXX   ++++++++     +++++++++++++++++++++     ++++++++  XXXXXX",
"OOXXXXXXX  ++++++++++++++++++++++++++++++++++++++++++   XXXXXXXX",
"OOOOOOOOO  ++++++++++++++++++++++++++++++++++++++++++   OOOOOOOO",
"OOOOOOOOOOO   ++++++++                     +++++++   OOOOOOOOOOO",
"OOOOOOOOOOO   ++++++++                     +++++++   OOOOOOOOOOO",
"OOOOOOOOO  oooooo     OOOOOOOOOOOOOOOOOOOOO     ooooo   OOOOOOOO",
"OOOOXXXXX  oooooo     XXXXXXOOOOXXXXXXXXXXX     ooooo   OXXXXXXX",
"OOOOXXXXXXX      XXXXXXXXXXXOOOOXXXXXXXXXXXXXXXX     OOOOXXXXXXX",
"OOOOOOOOOOO      OOOOOOOOOOOOOOOOOOOOOOOOOOOOOOO     OOOOOOOOOOO",
"OOOOOOOOOOO      OOOOOOOOOOOOOOOOOOOOOOOOOOOOOOO     OOOOOOOOOOO",
"OOOOOOOOOOOOOOOOOOOOOOOOOOOOOOOOOOOOOOOOOOOOOOOOOOOOOOOOOOOOOOOO",
"OOOOOOOOOOOOOOOOOOOOOOOOOOOOOOOOOOOOOOOOOOOOOOOOOOOOOOOOOOOOOOOO",
"OOXXXXXXOOOOOXXXXXXXXXXXXXXXXXXXXXXXXXOOOOOOOXXXXXXXXXXXXXXXXXXX",
"OOXXXXXXOOOOOXXXXXXXXXXXXXXXXXXXXXXXXXOOOOOOOXXXXXXXXXXXXXXXXXXX",
"OOOOOOOOOOOOOOOOOOOOOOOOOOOOOOOOOOOOOOOOOOOOOOOOOOOOOOOOOOOOOOOO"
};
