/* XPM */
static char *_1801838d53c4439fdc7394106cc7f0e0g2unqLn3EqiITBO[] = {
/* columns rows colors chars-per-pixel */
"64 64 8 1 ",
"  c #2A0252",
". c #554D5C",
"X c #92859E",
"o c #B4B4B4",
"O c #C3A9CF",
"+ c #DFBBF0",
"@ c #E6D3D6",
"# c #E6C5E4",
/* pixels */
"@@@@@@@@@@@@@@@@@@@@@@@@@@@@@@@XX@@@@@@@@@@@@@@@@@@@@@@@@@@@@@@@",
"@@@@@@@@@@@@@@@@@@@@@@@@@@@@@@@XX@@@@@@@@@@@@@@@@@@@@@@@@@@@@@@@",
"@@@@@@@@@@@@@@@@@@@@@@@@@@@@XXX..XXX@@@@@@@@@@@@@@@@@@@@@@@@@@@@",
"@@@@@@@@@@@@@@@@@@@@@@@@@@@@XXX..XXX@@@@@@@@@@@@@@@@@@@@@@@@@@@@",
"@@@@@@@@@@@@@@@@@@@@@@@@@@XX........XX@@@@@@@@@@@@@@@@@@@@@@@@@@",
"@@@@@@@@@@@@@@@@@@@@@@@@XX............XX@@@@@@@@@@@@@@@@@@@@@@@@",
"@@@@@@ooooooooooooooooooXX............XX@@@@@ooooooooooooooooooo",
"@@@@@@oooooooooooooooXXX................XXX@@ooooooooooooooooooo",
"@@@@@@@@@@@@@@@@@@@@@XXX................XXX@@@@@@@@@@@@@@@@@@@@@",
"@@@@@@@@@@@@@@@@@@@XX......................XX@@@@@@@@@@@@@@@@@@@",
"@@@@@@@@@@@@@@@@@@@XX......................XX@@@@@@@@@@@@@@@@@@@",
"@@@@@@@@@@@@@@@@@XX..........................XX@@@@@@@@@@@@@@@@@",
"@@oooooooooooooooXX..........................XXoooooooooooo@@@@@",
"@@ooooooooooooXXX..............................XXXooooooooo@@@@@",
"@@@@@@@@@@@@@@XXX..............................XXX@@@@@@@@@@@@@@",
"@@@@@@@@@@@@XX..........              ............XX@@@@@@@@@@@@",
"@@@@@@@@@XXX............  OO++++++++  ..............XXX@@@@@@@@@",
"@@@@@@@@@XXX............  OO++++++++  ..............XXX@@@@@@@@@",
"@@oooooXX...............  OOOOOOO+++  .................XXooooooo",
"@@oooooXX...............  OOOOOOO+++  .................XXooooooo",
"@@@@@XX.................  OOOOOOO+++  ...................XX@@@@@",
"@@@@@XX.................  OOOOOOO+++  ...................XX@@@@@",
"@@XXX...................  OOOOOOO+++  .....................XXX@@",
"@@XXX...................  OOOOOOO+++  .....................XXX@@",
"XX......................  OOOOOOO+++  ........................XX",
"XX......................  OOOOOOO+++  ........................XX",
"XX......................  OOOOOOO+++  ........................XX",
"XX......................  OOOOOOO+++  ........................XX",
"XX......................  OOOOOOO+++  ........................XX",
"XX......................              ........................XX",
"XX......................              ........................XX",
"XX............................................................XX",
"XX............................................................XX",
"XX............................................................XX",
"XX............................................................XX",
"XX............................................................XX",
"XX............................................................XX",
"XX.................                        ...................XX",
"XX.................                        ...................XX",
"XX.................                        ...................XX",
"XX.................                        ...................XX",
"XX.................                        ...................XX",
"XX.................                        ...................XX",
"XX.................                        ...................XX",
"XX.................                        ...................XX",
"XX.................                        ...................XX",
"XX.................                   #####...................XX",
"XX.................                   #####...................XX",
"XX.................                   #####...................XX",
"XX.................                        ...................XX",
"XX.................                        ...................XX",
"XX.................                        ...................XX",
"XX.................                        ...................XX",
"XX.................                        ...................XX",
"XX.................                        ...................XX",
"XX.................                        ...................XX",
"XX.................                        ...................XX",
"XX.................                        ...................XX",
"XX.................                        ...................XX",
"XX.................                        ...................XX",
"XX.................                        ...................XX",
"XX.................                        ...................XX",
"XX.................                        ...................XX",
"XX.................                        ...................XX"
};
