/* XPM */
static char *_6a5737289d04a36a439d302ee7dbab7uoj1fzkUEeg9ZhWB[] = {
/* columns rows colors chars-per-pixel */
"64 64 222 2 ",
"   c #040100",
".  c #0B0300",
"X  c #0C0A01",
"o  c #09070A",
"O  c #0C0B0A",
"+  c #110601",
"@  c #120B01",
"#  c #1A0E02",
"$  c #130E0A",
"%  c #1B0F0A",
"&  c #151101",
"*  c #1A1403",
"=  c #1E1A07",
"-  c #15150D",
";  c #1D150D",
":  c #141412",
">  c #1A1313",
",  c #1C1A15",
"<  c #1E1D1A",
"1  c #221809",
"2  c #211C13",
"3  c #261E16",
"4  c #2B200C",
"5  c #262312",
"6  c #2C2214",
"7  c #2F2A16",
"8  c #25231C",
"9  c #2A251B",
"0  c #2D291C",
"q  c #302917",
"w  c #342B1D",
"e  c #38361D",
"r  c #1F1E23",
"t  c #282624",
"y  c #2D292B",
"u  c #322C25",
"i  c #3A3522",
"p  c #34322D",
"a  c #3D342C",
"s  c #3C392B",
"d  c #382F30",
"f  c #3C3A35",
"g  c #3A393B",
"h  c #453C27",
"j  c #463D2D",
"k  c #453B34",
"l  c #413D3B",
"z  c #46412E",
"x  c #4C442F",
"c  c #454135",
"v  c #4D4334",
"b  c #454239",
"n  c #4C453C",
"m  c #554A36",
"M  c #5E543A",
"N  c #615A3E",
"B  c #464645",
"V  c #4A4743",
"C  c #4B4B44",
"Z  c #4B4A4B",
"A  c #554D44",
"S  c #544D47",
"D  c #4F5041",
"F  c #55524E",
"G  c #58554E",
"H  c #5E5D4F",
"J  c #5E5C53",
"K  c #5B5B5B",
"L  c #655A42",
"P  c #625B4A",
"I  c #665A4C",
"U  c #635D54",
"Y  c #60575A",
"T  c #615E5C",
"R  c #6D654D",
"E  c #6E694B",
"W  c #74694D",
"Q  c #6B6254",
"!  c #66605B",
"~  c #6A645B",
"^  c #6B6A5F",
"/  c #736B55",
"(  c #796F56",
")  c #746B5C",
"_  c #797456",
"`  c #7A7359",
"'  c #646364",
"]  c #6A6665",
"[  c #6D6A63",
"{  c #656368",
"}  c #726E62",
"|  c #74736D",
" . c #7D766B",
".. c #7F7870",
"X. c #80745E",
"o. c #827A5E",
"O. c #867B64",
"+. c #82786A",
"@. c #8B7E6C",
"#. c #877E76",
"$. c #8B8966",
"%. c #858168",
"&. c #8C866A",
"*. c #8C896C",
"=. c #918763",
"-. c #91896E",
";. c #868275",
":. c #878379",
">. c #8F8B7D",
",. c #948B75",
"<. c #9A8F73",
"1. c #92857D",
"2. c #958C7B",
"3. c #9A8D7C",
"4. c #9A9375",
"5. c #9E9A7E",
"6. c #A2997A",
"7. c #898383",
"8. c #948D83",
"9. c #988E82",
"0. c #978E8B",
"q. c #9B9282",
"w. c #999587",
"e. c #95918B",
"r. c #9C9492",
"t. c #9D9892",
"y. c #A59885",
"u. c #A49A84",
"i. c #A49C8C",
"p. c #A59B96",
"a. c #ABA384",
"s. c #ACA48C",
"d. c #B0A589",
"f. c #B2AA8A",
"g. c #B8B28E",
"h. c #ABA492",
"j. c #AAA695",
"k. c #A4A29D",
"l. c #ACA49A",
"z. c #ADAA9A",
"x. c #B2A693",
"c. c #B4AC95",
"v. c #B9AE96",
"b. c #B6AC9C",
"n. c #B9B591",
"m. c #BAB296",
"M. c #BBB39C",
"N. c #AD9FA1",
"B. c #ACA6A7",
"V. c #AFAAA7",
"C. c #B3ACA2",
"Z. c #B9ADA3",
"A. c #BAB3A6",
"S. c #BEBAA2",
"D. c #BBB3AB",
"F. c #BAB6AA",
"G. c #B4B4B4",
"H. c #BBB5B4",
"J. c #BBB9B4",
"K. c #BCBBBB",
"L. c #C2B69B",
"P. c #C3BC9C",
"I. c #C4BEA3",
"U. c #C6B9A6",
"Y. c #CBBEA3",
"T. c #C6BCAC",
"R. c #C4BCB5",
"E. c #C9BDB5",
"W. c #C5BCBD",
"Q. c #CBC2A4",
"!. c #CBC5A5",
"~. c #C7C1AB",
"^. c #CAC4AA",
"/. c #CFCAAD",
"(. c #D0C5AC",
"). c #D7CCAB",
"_. c #D2CAAC",
"`. c #D6D1AC",
"'. c #D9D0AF",
"]. c #CBC5B6",
"[. c #CAC7B8",
"{. c #D4CCB3",
"}. c #D3CBBB",
"|. c #D7D0B4",
" X c #DBD2B7",
".X c #D6D1BB",
"XX c #D9D2BC",
"oX c #C3BDC1",
"OX c #C3C3C2",
"+X c #CECAC4",
"@X c #CDCDCC",
"#X c #D1C5C3",
"$X c #D1CBC3",
"%X c #D8CAC7",
"&X c #D3CCCA",
"*X c #DBCDCB",
"=X c #D4D0C5",
"-X c #DAD2C5",
";X c #D4D2CB",
":X c #DFD5CD",
">X c #DFD2D2",
",X c #E3D9CE",
"<X c #E6D3D6",
"1X c #E5D9D4",
"2X c #E7D6D8",
"3X c #E8D7D9",
"4X c #E3D9D9",
"5X c #EAD9DA",
"6X c #EEE3DD",
"7X c #F1EADB",
"8X c #F4F2DD",
"9X c #E7E5E4",
"0X c #EEE3E1",
"qX c #EAE9E4",
"wX c #F0E5E3",
"eX c #F4EDE4",
"rX c #F5EEE9",
"tX c #F9F4EF",
"yX c #F4EFF0",
"uX c #F4F1F1",
"iX c #FCF9F4",
"pX c #FDFCFC",
/* pixels */
"<X<X<X<X<X<X<X<X<X<X<X<X<X<X<X<X<X<X<X<X<X<X<X<X<X<X<X<X<X<X<X<X<X<X<X<X<X<X<X<X<X<X<X<X<X<X<X<X<X<X<X<X<X<X<X<X<X<X<X<X<X<X<X<X",
"<X<X<X<X<X<X<X<X<X<X<X<X<X<X<X<X<X<X<X<X<X<X<X<X<X<X<X<X<X<X<X<X<X<X<X<X<X<X<X<X<X<X<X<X<X<X<X<X<X<X<X<X<X<X<X<X<X<X<X<X<X<X<X<X",
"<X<X<X<X<X<X<X<X<X<X<X<X<X<X<X<X<X<X<X<X<X<X<X<X<X<X<X<X<X<X<X<X<X<X<X<X<X<X<X<X<X<X<X<X<X<X<X<X<X<X<X<X<X<X<X<X<X<X<X<X<X<X<X<X",
"<X<X<X<X<X<X<X<X<X<X<X<X<X<X<X<X<X<X<X<X<X<X<X<X<X<X<X<X<X<X<X<X<X<X<X<X<X<X<X<X<X<X<X<X<X<X<X<X<X<X<X<X<X<X<X<X<X<X<X<X<X<X<X<X",
"<X<X<X<X<X<X<X<X<X<X<X<X<X<X<X<X<X<X<X<X<X<X<X<X<X<X<X<X<X<X<X<X<X<X<X<X<X<X<X<X<X<X<X<X<X<X<X<X<X<X<X<X<X<X<X<X<X<X<X<X<X<X<X<X",
"<X<X<X<X<X<X<X<X<X<X<X<X<X<X<X<X<X<X<X<X<X<X<X<X<X<X<X<X<X<X<X<X<X<X<X<X<X<X<X<X<X<X<X<X<X<X<X<X<X<X<X<X<X<X<X<X<X<X<X<X<X<X<X<X",
"<X<X<X<X<X<XG.G.G.G.G.G.G.G.G.G.G.G.G.G.G.G.G.G.G.G.G.G.G.G.G.G.G.G.G.G.G.G.<X<X<X<X<X<X<XG.G.G.G.G.G.G.G.G.G.G.G.G.G.G.G.G.G.G.",
"<X<X<X<X<X<XG.G.G.G.G.G.G.G.G.G.G.G.G.G.G.G.G.G.G.G.G.G.G.G.G.G.G.G.G.G.G.G.<X<X<X<X<X<X<XG.G.G.G.G.G.G.G.G.G.G.G.G.G.G.G.G.G.G.",
"<X<X<X<X<X<X<X<X<X<X<X<X<X<X<X<X<X<X<X<X<X<X<X<X<X<X<X<X<X<X<X<X<X<X<X<X<X<X<X<X<X<X<X<X<X<X<X<X<X<X<X<X<X<X<X<X<X<X<X<X<X<X<X<X",
"<X<X<X<X<X<X<X<X<X<X<X<X<X<X<X<X<X<X<X<X<X<X<X<X<X<X<X<X<X<X<X<X<X<X<X<X<X<X<X<X<X<X<X<X<X<X<X<X<X<X<X<X<X<X<X<X<X<X<X<X<X<X<X<X",
"<X<X<X<X<X<X<X<X<X<X<X<X<X<X<X<X<X<X<X<X<X<X<X<X<X<X<X<X<X<X<X<X<X<X<X<X<X<X<X<X<X<X<X<X<X<X<X<X<X<X<X<X<X<X<X<X<X<X<X<X<X<X<X<X",
"<X<X<X<X<X<X<X<X<X<X<X<X<X<X<X<X<X<X<X<X<X<X<X<X<X<X<X<X<X<X<X<X<X<X<X<X<X<X<X<X<X<X<X<X<X<X<X<X<X<X<X<X<X<X<X<X<X<X<X<X<X<X<X<X",
"<X<XG.G.G.G.G.G.G.G.G.G.G.G.G.G.G.G.G.G.G.G.G.G.G.G.G.G.<X<X<X<X<X<XG.G.G.G.G.G.G.G.G.G.G.G.G.G.G.G.G.G.G.G.G.G.G.G.G.<X<X<X<X<X",
"<X<XG.G.G.G.G.G.G.G.G.G.G.G.G.G.G.G.G.G.G.G.G.G.G.G.G.G.<X<X<X<X<X<XG.G.G.G.G.G.G.G.G.G.G.G.G.G.G.G.G.G.G.G.G.G.G.G.G.<X<X<X<X<X",
"<X<X<X<X<X<X<X<X<X<X<X<X<X<X<X<X<X<X<X<X<X<X<X<X<X<X<X<X<X<X<X<X<X<X<X<X<X<X5X$X<X<X<X<X<X<X<X<X<X<X<X<X<X<X<X<X<X<X<X<X<X<X<X<X",
"<X<X<X<X<X<X<X<X<X<X<X<X<X<X<X<X<X<X<X<X<X<X<X<X<X<X<X<X<X<X<X<X<X<X<X<X<Xl.5 . H &X<X<X<X<X<X<X<X<X<X<X<X<X<X<X<X<X<X<X<X<X<X<X",
"<X<X<X<X<X<X<X<X<X<X<X<X<X<X<X<X<X<X<X<X<X<X<X<X<X<X<X<X<X<X<X<X<X<X<XR.k X * z.D [ <X<X<X<X<X<X<X<X<X<X<X<X<X<X<X<X<X<X<X<X<X<X",
"<X<X<X<X<X<X<X<X<X<X<X<X<X<X<X<X<X<X<X<X<X<X<X<X<X<X<X<X<X<X<X<X<X%X1.. . Q }.j.- J.<X<X<X<X<X<X<X<X<X<X<X<X<X<X<X<X<X<X<X<X<X<X",
"<X<XG.G.G.G.G.G.G.G.G.G.G.<X<X<X<X<X<XG.G.G.G.G.G.G.G.G.G.G.G.J.A.z . 4 x.b.A.u b OXK.G.G.<X<X<X<X<X<XG.G.G.G.G.G.G.G.G.G.G.G.G.",
"<X<XG.G.G.G.G.G.G.G.G.G.G.<X<X<X<X<X<XG.G.G.G.G.G.G.G.G.G.H.R.w.+ . M Q.P.y.3.. k.+XOXG.G.<X<X<X<X<X<XG.G.G.G.G.G.G.G.G.G.G.G.G.",
"<X<X<X<X<X<X<X<X<X<X<X<X<X<X<X<X<X<X<X<X<X<X<X<X<X<X<X3XR.*X .. @ o._.).W M.+ A R.$X0X<X<X<X<X<X<X<X<X<X<X<X<X<X<X<X<X<X<X<X<X<X",
"<X<X<X<X<X<X<X<X<X<X<X<X3X%X<XE.i.*X<X<X<X<X<X<X<X5X1XT.-XA . 6 ,.m._.=.4.R . C.0.rXrX6X5X<X<X<X<X<X<X<X<X<X<X<X<X<X<X<X<X<X<X<X",
"<X<X<X<X<X<X<X<X<X<X<X<X>X  C.,XU.Q #.2X<X<X<X3X6X,X^.T.v . k h.y.Y.v.W y.. Q Z.+.7X7X8XeX0X5X3X<X<X<X<X<X<X<X<X<X<X<X<X<X<X<X<X",
"<X<X<X<X<X<X<X<X<X<X<X<X#X    %. X*X8.t H.<X5X6X7XS.S.x . v b.@.Y.(.L i.6 1 E.j P ^.P.S.}.$X4X3X2X<X<X<X<X<X<X<X<X<X<X<X<X<X<X<X",
"<X<XG.G.G.G.G.G.G.G.G.G.G.O s X 2.~.F.k.0 ^ J.;XC.}.j . m x.O.Q.|.R q.P .  .9 I _.!.g./.w.O O K OXOXG.G.G.G.G.G.G.G.G.<X<X<X<X<X",
"<X<XG.G.G.G.G.G.G.G.G.G.K.  [ 9   2.XXz.i.v s R.+XU + q U./ L.Y.<./   + k ; U M.g.n.`./   < g o K @XK.G.G.G.G.G.G.G.G.<X<X<X<X<X",
"<X<X<X<X<X<X<X<X<X<X<X<X2X: 8 :.. & ,..Xs.y.R 6 ) . # b.X.d.'.f.L x.  $ 3 n M.y.!.'.E .   T r y   @XiX<X<X<X<X<X<X<X<X<X<X<X<X<X",
"<X<X<X<X<X<X<X<X<X<X<X<X<X] X t.w   = s.XXy.@.@.+ . 3.3.,. XL.M s.7   0 2 z.O.Q._.O.    , 7.o g O G.pX<X<X<X<X<X<X<X<X<X<X<X<X<X",
"<X<X<X<X<X<X<X<X<X<X<X<X<XB.X T t.X   * b.}.y.+.+.1 y.O.Q.Q.M y.P . j =   *.c._.y.. %   ] |   B   K.pX<X<X<X<X<X<X<X<X<X<X<X<X<X",
"<X<X<X<X<X<X<X<X<X<X<X<X<X>Xt 3 J.k . . a T.].,.,.R @ L.{.( y.) . 2 P e 5.$./.~.w .   > V.< < B   9XuX<X<X<X<X<X<X<X<X<X<X<X<X<X",
"<X<XG.G.G.G.G.G.<X<X<X<X<X<XV 9 Q C.  X . A ].{._ s.h m 3.q.#.. X ;.7 *._ I.{.)   X + } w.X A : g pXOXG.G.G.G.G.G.G.G.G.G.G.G.G.",
"<X<XG.G.G.G.G.G.<X<X<X<X<X<Xr.c @ ].U .   . +./.!.E c.+ / 9.. . ..8.7 4.$./.h.X X . ; ].s   |   B.iXG.G.G.G.G.G.G.G.G.G.G.G.G.G.",
"<X<X<X<X<X<X<X<X<X<X<X<X<X<X*Xc 5 A $XX X .   h./.m.o.&.+ @ X n :Xi / o.P./.P . .   >.h.X G p : uXiX<X<X<X<X<X<X<X<X<X<X<X<X<X<X",
"<X<X<X<X<X<X<X<X<X<X<X<X<X<X<XV ~   C.8.  . + w ~._.<.a.h . a #Xl.q *.&._.s.  . . n =X9 X |   k.pX<X<X<X<X<X<X<X<X<X<X<X<X<X<X<X",
"<X<X<X<X<X<X<X<X<X<X<X<X<X<X<Xp.! 8 9 -Xc X   + / {.P.6.-.+ E.:X3 j -.m.|.z X .   A.:.X [ - C pXyX<X<X<X<X<X<X<X<X<X<X<X<X<X<X<X",
"<X<X<X<X<X<X<X<X<X<X<X<X<X<X<X<Xu } @ } ].$ . . + M.!.a.s.j p.a . ( <._.y.. . . ..[.  l F 8 iXuX<X<X<X<X<X<X<X<X<X<X<X<X<X<X<X<X",
"<X<X<X<X<X<X<X<X<X<X<X<X<X<X<X<X7.b c   V.0.. + X N `.P.L.Q % 1.v ` f._.M .   u $Xs 8 [ - qX0X<X<X<X<X<X<X<X<X<X<X<X<X<X<X<X<X<X",
"<X<XG.G.G.G.G.G.G.G.G.G.G.G.G.G.G.$ ;.& @ W.Y . X & f.!.(.1.D.9Xw 5.P.m.+ . X R.} X ^ < &XK.G.G.G.<X<X<X<X<X<X<X<X<X<X<X<X<X<X<X",
"<X<XG.G.G.G.G.G.G.G.G.G.G.G.G.G.G.G.s ..  y oXd   @ E /.^.Z.tXR.k c._.R . . 7.p.X J 8 @XK.G.G.G.G.<X<X<X<X<X<X<X<X<X<X<X<X<X<X<X",
"<X<X<X<X<X<X<X<X<X<X<X<X<X<X<X<X<X<XN.~ U   l V.2   i I.M.-XiXp.I I.~.1 X F G.$ V p &X2X<X<X<X<X<X<X<X<X<XG.G.G.G.G.G.G.G.G.G.G.",
"<X<X<X<X<X<X<X<X<X<X<X<X<X<X<X<X<X<X<X, C '   y e.@ X M.~.6XrX8. ..X,.@ 0 V.y p f >X2X<X<X<X<X<X<X<X<X<X<XG.G.G.G.G.G.G.G.G.G.G.",
"<X<X<X<X<X<X<X<X<X<X<X<X<X<X<X<X<X<X<X<XO y {   > J   >.eXtXrX8.w.-Xz   e.y o B 2X<X<X<X<X<X<X<X<X<X<X<X<X<X<X<X<X<X<X<X<X<X<X<X",
"<X<X<X<X<X<X<X<X<X<X<X<X<X<X<X<X<X<X<X<X<Xo   Z <   8 1XrXwX0Xl.C.F.. H ,   { <X<X<X<X<X<X<X<X<X<X<X<X<X<X<X<X<X<X<X<X<X<X<X<X<X",
"<X<XG.G.<X<X<X<X<X<X<XG.G.G.G.G.G.G.G.G.G.G.'   t Z K.K.K.G.OX=XR.| . X   k.G.G.G.G.G.G.G.G.G.G.G.G.G.G.G.G.G.G.G.G.G.<X<X<X<X<X",
"<X<XG.G.<X<X<X<X<X<X<XG.G.G.G.G.G.G.G.G.G.G.G.G.G.G.G.G.G.G.G.K.[.f   J 3X<XG.G.G.G.G.G.G.G.G.G.G.G.G.G.G.G.G.G.G.G.G.<X<X<X<X<X",
"<X<X<X<X<X<X<X<X<X<X<X<X<X<X<X<X<X<X<X<X<X<X<X<X<X<X<X<X<X<X<X<X<X%X2X2X<X<X<X<X<X<X<X<X<X<X<X<X<X<X<X<X<X<X<X<X<X<X<X<X<X<X<X<X",
"<X<X<X<X<X<X<X<X<X<X<X<X<X<X<X<X<X<X<X<X<X<X<X<X<X<X<X<X<X<X<X<X<X<X<X<X<X<X<X<X<X<X<X<X<X<X<X<X<X<X<X<X<X<X<X<X<X<X<X<X<X<X<X<X",
"<X<X<X<X<X<X<X<X<X<X<X<X<X<X<X<X<X<X<X<X<X<X<X<X<X<X<X<X<X<X<X<X<X<X<X<X<X<X<X<X<X<X<X<X<X<X<X<X<X<X<X<X<X<X<X<X<X<X<X<X<X<X<X<X",
"<X<X<X<X<X<X<X<X<X<X<X<X<X<X<X<X<X<X<X<X<X<X<X<X<X<X<X<X<X<X<X<X<X<X<X<X<X<X<X<X<X<X<X<X<X<X<X<X<X<X<X<X<X<X<X<X<X<X<X<X<X<X<X<X",
"<X<XG.G.G.G.G.G.G.G.G.G.G.G.G.G.G.G.G.G.G.G.G.<X<X<X<X<XG.G.G.G.G.G.G.G.G.G.G.G.G.G.G.G.G.G.G.<X<X<X<XG.G.G.G.G.G.G.G.G.G.G.G.G.",
"<X<XG.G.G.G.G.G.G.G.G.G.G.G.G.G.G.G.G.G.G.G.G.<X<X<X<X<XG.G.G.G.G.G.G.G.G.G.G.G.G.G.G.G.G.G.G.<X<X<X<XG.G.G.G.G.G.G.G.G.G.G.G.G.",
"<X<X<X<X<X<X<X<X<X<X<X<X<X<X<X<X<X<X<X<X<X<X<X<X<X<X<X<X<X<X<X<X<X<X<X<X<X<X<X<X<X<X<X<X<X<X<X<X<X<X<X<X<X<X<X<X<X<X<X<X<X<X<X<X",
"<X<X<X<X<X<X<X<X<X<X<X<X<X<X<X<X<X<X<X<X<X<X<X<X<X<X<X<X<X<X<X<X<X<X<X<X<X<X<X<X<X<X<X<X<X<X<X<X<X<X<X<X<X<X<X<X<X<X<X<X<X<X<X<X",
"<X<X<X<X<X<X<X<X<X<X<X<X<X<X<X<X<X<X<X<X<X<X<X<X<X<X<X<X<X<X<X<X<X<X<X<X<X<X<X<X<X<X<X<X<X<X<X<X<X<X<X<X<X<X<X<X<X<X<X<X<X<X<X<X",
"<X<X<X<X<X<X<X<X<X<X<X<X<X<X<X<X<X<X<X<X<X<X<X<X<X<X<X<X<X<X<X<X<X<X<X<X<X<X<X<X<X<X<X<X<X<X<X<X<X<X<X<X<X<X<X<X<X<X<X<X<X<X<X<X",
"<X<X<X<XG.G.G.G.G.G.G.G.G.G.G.G.G.G.G.G.G.G.G.G.G.G.G.G.<X<X<X<XG.G.G.G.G.G.G.G.G.G.G.G.G.G.G.G.G.G.G.<X<X<X<X<X<XG.G.G.G.G.G.G.",
"<X<X<X<XG.G.G.G.G.G.G.G.G.G.G.G.G.G.G.G.G.G.G.G.G.G.G.G.<X<X<X<XG.G.G.G.G.G.G.G.G.G.G.G.G.G.G.G.G.G.G.<X<X<X<X<X<XG.G.G.G.G.G.G.",
"<X<X<X<X<X<X<X<X<X<X<X<X<X<X<X<X<X<X<X<X<X<X<X<X<X<X<X<X<X<X<X<X<X<X<X<X<X<X<X<X<X<X<X<X<X<X<X<X<X<X<X<X<X<X<X<X<X<X<X<X<X<X<X<X",
"<X<X<X<X<X<X<X<X<X<X<X<X<X<X<X<X<X<X<X<X<X<X<X<X<X<X<X<X<X<X<X<X<X<X<X<X<X<X<X<X<X<X<X<X<X<X<X<X<X<X<X<X<X<X<X<X<X<X<X<X<X<X<X<X",
"<X<X<X<X<X<X<X<X<X<X<X<X<X<X<X<X<X<X<X<X<X<X<X<X<X<X<X<X<X<X<X<X<X<X<X<X<X<X<X<X<X<X<X<X<X<X<X<X<X<X<X<X<X<X<X<X<X<X<X<X<X<X<X<X",
"<X<X<X<X<X<X<X<X<X<X<X<X<X<X<X<X<X<X<X<X<X<X<X<X<X<X<X<X<X<X<X<X<X<X<X<X<X<X<X<X<X<X<X<X<X<X<X<X<X<X<X<X<X<X<X<X<X<X<X<X<X<X<X<X",
"<X<XG.G.G.G.G.G.<X<X<X<X<XG.G.G.G.G.G.G.G.G.G.G.G.G.G.G.G.G.G.G.G.G.G.G.G.G.<X<X<X<X<X<X<XG.G.G.G.G.G.G.G.G.G.G.G.G.G.G.G.G.G.G.",
"<X<XG.G.G.G.G.G.<X<X<X<X<XG.G.G.G.G.G.G.G.G.G.G.G.G.G.G.G.G.G.G.G.G.G.G.G.G.<X<X<X<X<X<X<XG.G.G.G.G.G.G.G.G.G.G.G.G.G.G.G.G.G.G.",
"<X<X<X<X<X<X<X<X<X<X<X<X<X<X<X<X<X<X<X<X<X<X<X<X<X<X<X<X<X<X<X<X<X<X<X<X<X<X<X<X<X<X<X<X<X<X<X<X<X<X<X<X<X<X<X<X<X<X<X<X<X<X<X<X"
};
