/* XPM */
static char *_8ef6dd8576a4d1aa0d4dde4a55bfdc3HgoJHVt9V9LE34eM[] = {
/* columns rows colors chars-per-pixel */
"64 64 8 1 ",
"  c black",
". c gray13",
"X c gray26",
"o c #464646",
"O c gray34",
"+ c gray38",
"@ c gray46",
"# c gray62",
/* pixels */
"O##@@@@@@@@@@@@@@@@@@@@@@@@@++  +++##@@@@@@@@@@@@@@@@@@@@@@@@@++",
"O##@@@@@@@@@@@@@@@@@@@@@@@@@++  +++##@@@@@@@@@@@@@@@@@@@@@@@@@++",
"#ooooooooooooooooooooooooooo@@..###ooooooooooooooooooooooooooo@@",
"#ooooooooooooooooooooooooooo@@..###ooooooooooooooooooooooooooo@@",
"@ooooooooooooooooooooooooooooo..@@@ooooooooooooooooooooooooooooo",
"@ooooooooooooooooooooooooooooo..@@@ooooooooooooooooooooooooooooo",
"@oooooooooooooooooooooooooooXX..@@@oooooooooooooooooooooooooooXX",
"@oooooooooooooooooooooooooooXX..@@@oooooooooooooooooooooooooooXX",
"@oooooooooooooooooooooooooooXX..@@@oooooooooooooooooooooooooooXX",
"@oooooooooooooooooooooooooooXX..@@@oooooooooooooooooooooooooooXX",
"@oooooooooooooooooooooooooooXX..@@@oooooooooooooooooooooooooooXX",
"@oooooooooooooooooooooooooooXX..@@@oooooooooooooooooooooooooooXX",
"@oooooooooooooooooooooooooooXX..@@@oooooooooooooooooooooooooooXX",
"@oooooooooooooooooooooooooooXX..@@@oooooooooooooooooooooooooooXX",
"@oooooooooooooooooooooooooooXX..@@@oooooooooooooooooooooooooooXX",
"@oooooooooooooooooooooooooooXX..@@@oooooooooooooooooooooooooooXX",
"@oooooooooooooooooooooooooooXX..@@@oooooooooooooooooooooooooooXX",
"@oooooooooooooooooooooooooooXX..@@@oooooooooooooooooooooooooooXX",
"@oooooooooooooooooooooooooooXX..@@@oooooooooooooooooooooooooooXX",
"@oooooooooooooooooooooooooooXX..@@@oooooooooooooooooooooooooooXX",
"@oooooooooooooooooooooooooooXX..@@@oooooooooooooooooooooooooooXX",
"@oooooooooooooooooooooooooooXX..@@@oooooooooooooooooooooooooooXX",
"@oooooooooooooooooooooooooooXX..@@@oooooooooooooooooooooooooooXX",
"@oooooooooooooooooooooooooooXX..@@@oooooooooooooooooooooooooooXX",
"@oooooooooooooooooooooooooooXX..@@@oooooooooooooooooooooooooooXX",
"@oooooooooooooooooooooooooooXX..@@@oooooooooooooooooooooooooooXX",
"@oooooooooooooooooooooooooooXX..@@@oooooooooooooooooooooooooooXX",
"@oooooooooooooooooooooooooooXX..@@@oooooooooooooooooooooooooooXX",
"+@@ooXXXXXXXXXXXXXXXXXXXXXXX..  +++@@ooXXXXXXXXXXXXXXXXXXXXXXX..",
"+@@ooXXXXXXXXXXXXXXXXXXXXXXX..  +++@@ooXXXXXXXXXXXXXXXXXXXXXXX..",
" ...........................       ...........................  ",
" ...........................       ...........................  ",
"+##@@@@@@@@@@@@@@@@@@@@@@@@@++  +++##@@@@@@@@@@@@@@@@@@@@@@@@@++",
"+##@@@@@@@@@@@@@@@@@@@@@@@@@++  +++##@@@@@@@@@@@@@@@@@@@@@@@@@++",
"#ooooooooooooooooooooooooooo@@..###ooooooooooooooooooooooooooo@@",
"#ooooooooooooooooooooooooooo@@..###ooooooooooooooooooooooooooo@@",
"@ooooooooooooooooooooooooooooo..@@@ooooooooooooooooooooooooooooo",
"@ooooooooooooooooooooooooooooo..@@@ooooooooooooooooooooooooooooo",
"@oooooooooooooooooooooooooooXX..@@@oooooooooooooooooooooooooooXX",
"@oooooooooooooooooooooooooooXX..@@@oooooooooooooooooooooooooooXX",
"@oooooooooooooooooooooooooooXX..@@@oooooooooooooooooooooooooooXX",
"@oooooooooooooooooooooooooooXX..@@@oooooooooooooooooooooooooooXX",
"@oooooooooooooooooooooooooooXX..@@@oooooooooooooooooooooooooooXX",
"@oooooooooooooooooooooooooooXX..@@@oooooooooooooooooooooooooooXX",
"@oooooooooooooooooooooooooooXX..@@@oooooooooooooooooooooooooooXX",
"@oooooooooooooooooooooooooooXX..@@@oooooooooooooooooooooooooooXX",
"@oooooooooooooooooooooooooooXX..@@@oooooooooooooooooooooooooooXX",
"@oooooooooooooooooooooooooooXX..@@@oooooooooooooooooooooooooooXX",
"@oooooooooooooooooooooooooooXX..@@@oooooooooooooooooooooooooooXX",
"@oooooooooooooooooooooooooooXX..@@@oooooooooooooooooooooooooooXX",
"@oooooooooooooooooooooooooooXX..@@@oooooooooooooooooooooooooooXX",
"@oooooooooooooooooooooooooooXX..@@@oooooooooooooooooooooooooooXX",
"@oooooooooooooooooooooooooooXX..@@@oooooooooooooooooooooooooooXX",
"@oooooooooooooooooooooooooooXX..@@@oooooooooooooooooooooooooooXX",
"@oooooooooooooooooooooooooooXX..@@@oooooooooooooooooooooooooooXX",
"@oooooooooooooooooooooooooooXX..@@@oooooooooooooooooooooooooooXX",
"@oooooooooooooooooooooooooooXX..@@@oooooooooooooooooooooooooooXX",
"@oooooooooooooooooooooooooooXX..@@@oooooooooooooooooooooooooooXX",
"@oooooooooooooooooooooooooooXX..@@@oooooooooooooooooooooooooooXX",
"@oooooooooooooooooooooooooooXX..@@@oooooooooooooooooooooooooooXX",
"+@@ooXXXXXXXXXXXXXXXXXXXXXXX..  +++@@ooXXXXXXXXXXXXXXXXXXXXXXX..",
"+@@ooXXXXXXXXXXXXXXXXXXXXXXX..  +++@@ooXXXXXXXXXXXXXXXXXXXXXXX..",
" ...........................       ...........................  ",
" ...........................       ...........................  "
};
